<svg xmlns="http://www.w3.org/2000/svg" width="1506" height="590" viewBox="0 0 1506 590">
  <g id="FRECUENCIA" transform="translate(106.847 -116.559)">
    <g id="FRECUENCIA-2" data-name="FRECUENCIA" transform="translate(-295 -59.441)" opacity="0.05">
      <path id="Path_9" data-name="Path 9" d="M195.153,594.055V577.939" transform="translate(-2 6.441)" fill="none" stroke="#1e1131" stroke-linecap="round" stroke-width="10"/>
      <path id="Path_10" data-name="Path 10" d="M195.153,577.939s.063,12.084,0,16.116,0,32.967,0,32.967" transform="translate(11 -9.559)" fill="none" stroke="#1e1131" stroke-linecap="round" stroke-width="10"/>
      <path id="Path_11" data-name="Path 11" d="M195.153,577.939v20.048" transform="translate(24 4.441)" fill="none" stroke="#1e1131" stroke-linecap="round" stroke-width="10"/>
      <path id="Path_12" data-name="Path 12" d="M195.153,577.939s.063,12.084,0,16.116,0,46.245,0,46.245" transform="translate(37 -16.559)" fill="none" stroke="#1e1131" stroke-linecap="round" stroke-width="10"/>
      <path id="Path_13" data-name="Path 13" d="M195.153,577.939v20.048" transform="translate(50 4.441)" fill="none" stroke="#1e1131" stroke-linecap="round" stroke-width="10"/>
      <path id="Path_14" data-name="Path 14" d="M195.153,592.494v-8.682" transform="translate(63 4.441)" fill="none" stroke="#1e1131" stroke-linecap="round" stroke-width="10"/>
      <path id="Path_15" data-name="Path 15" d="M195.153,589.979v-3.621" transform="translate(76 4.441)" fill="none" stroke="#1e1131" stroke-linecap="round" stroke-width="10"/>
      <path id="Path_16" data-name="Path 16" d="M195.153,577.939v20.048" transform="translate(89 4.441)" fill="none" stroke="#1e1131" stroke-linecap="round" stroke-width="10"/>
      <path id="Path_17" data-name="Path 17" d="M195.153,629.5V546.663" transform="translate(102 4.441)" fill="none" stroke="#1e1131" stroke-linecap="round" stroke-width="10"/>
      <path id="Path_18" data-name="Path 18" d="M195.153,606.261V569.676" transform="translate(115 4.441)" fill="none" stroke="#1e1131" stroke-linecap="round" stroke-width="10"/>
      <path id="Path_19" data-name="Path 19" d="M195.153,636.33v-96.5" transform="translate(128 4.441)" fill="none" stroke="#1e1131" stroke-linecap="round" stroke-width="10"/>
      <path id="Path_20" data-name="Path 20" d="M195.153,601.886V574.274" transform="translate(141 4.441)" fill="none" stroke="#1e1131" stroke-linecap="round" stroke-width="10"/>
      <path id="Path_21" data-name="Path 21" d="M195.153,629.5V546.663" transform="translate(154 4.441)" fill="none" stroke="#1e1131" stroke-linecap="round" stroke-width="10"/>
      <path id="Path_22" data-name="Path 22" d="M195.153,644.784s-.063-46.7,0-50.728,0-20.656,0-20.656" transform="translate(167 -16.559)" fill="none" stroke="#1e1131" stroke-linecap="round" stroke-width="10"/>
      <path id="Path_23" data-name="Path 23" d="M195.153,627.157s-.063-29.069,0-33.1,0-3.248,0-3.248" transform="translate(180 -16.559)" fill="none" stroke="#1e1131" stroke-linecap="round" stroke-width="10"/>
      <path id="Path_24" data-name="Path 24" d="M195.153,614.019v-9.744" transform="translate(193 -16.559)" fill="none" stroke="#1e1131" stroke-linecap="round" stroke-width="10"/>
      <path id="Path_25" data-name="Path 25" d="M195.153,648.434V568.871" transform="translate(206 -16.559)" fill="none" stroke="#1e1131" stroke-linecap="round" stroke-width="10"/>
      <path id="Path_26" data-name="Path 26" d="M195.153,666.012V552.478" transform="translate(219 -16.559)" fill="none" stroke="#1e1131" stroke-linecap="round" stroke-width="10"/>
      <path id="Path_27" data-name="Path 27" d="M195.153,630.653V587.6" transform="translate(232 -16.559)" fill="none" stroke="#1e1131" stroke-linecap="round" stroke-width="10"/>
      <path id="Path_28" data-name="Path 28" d="M195.153,617.9V600.345" transform="translate(245 -16.559)" fill="none" stroke="#1e1131" stroke-linecap="round" stroke-width="10"/>
      <path id="Path_29" data-name="Path 29" d="M195.153,614.017V603.726" transform="translate(258 -16.559)" fill="none" stroke="#1e1131" stroke-linecap="round" stroke-width="10"/>
      <path id="Path_30" data-name="Path 30" d="M195.153,646.769V571.832" transform="translate(271 -16.559)" fill="none" stroke="#1e1131" stroke-linecap="round" stroke-width="10"/>
      <path id="Path_31" data-name="Path 31" d="M195.153,617.9V600.345" transform="translate(284 -16.559)" fill="none" stroke="#1e1131" stroke-linecap="round" stroke-width="10"/>
      <path id="Path_32" data-name="Path 32" d="M195.153,646.769V571.832" transform="translate(297 -16.559)" fill="none" stroke="#1e1131" stroke-linecap="round" stroke-width="10"/>
      <path id="Path_33" data-name="Path 33" d="M195.153,601.886V574.274" transform="translate(310 4.441)" fill="none" stroke="#1e1131" stroke-linecap="round" stroke-width="10"/>
      <path id="Path_34" data-name="Path 34" d="M195.153,614.017V603.726" transform="translate(323 -16.559)" fill="none" stroke="#1e1131" stroke-linecap="round" stroke-width="10"/>
    </g>
    <g id="FRECUENCIA-3" data-name="FRECUENCIA" transform="translate(43 -59.441)" opacity="0.05">
      <path id="Path_9-2" data-name="Path 9" d="M195.153,594.055V577.939" transform="translate(-2 6.441)" fill="none" stroke="#1e1131" stroke-linecap="round" stroke-width="10"/>
      <path id="Path_10-2" data-name="Path 10" d="M195.153,577.939s.063,12.084,0,16.116,0,32.967,0,32.967" transform="translate(11 -9.559)" fill="none" stroke="#1e1131" stroke-linecap="round" stroke-width="10"/>
      <path id="Path_11-2" data-name="Path 11" d="M195.153,577.939v20.048" transform="translate(24 4.441)" fill="none" stroke="#1e1131" stroke-linecap="round" stroke-width="10"/>
      <path id="Path_12-2" data-name="Path 12" d="M195.153,577.939s.063,12.084,0,16.116,0,46.245,0,46.245" transform="translate(37 -16.559)" fill="none" stroke="#1e1131" stroke-linecap="round" stroke-width="10"/>
      <path id="Path_13-2" data-name="Path 13" d="M195.153,577.939v20.048" transform="translate(50 4.441)" fill="none" stroke="#1e1131" stroke-linecap="round" stroke-width="10"/>
      <path id="Path_14-2" data-name="Path 14" d="M195.153,592.494v-8.682" transform="translate(63 4.441)" fill="none" stroke="#1e1131" stroke-linecap="round" stroke-width="10"/>
      <path id="Path_15-2" data-name="Path 15" d="M195.153,589.979v-3.621" transform="translate(76 4.441)" fill="none" stroke="#1e1131" stroke-linecap="round" stroke-width="10"/>
      <path id="Path_16-2" data-name="Path 16" d="M195.153,577.939v20.048" transform="translate(89 4.441)" fill="none" stroke="#1e1131" stroke-linecap="round" stroke-width="10"/>
      <path id="Path_17-2" data-name="Path 17" d="M195.153,629.5V546.663" transform="translate(102 4.441)" fill="none" stroke="#1e1131" stroke-linecap="round" stroke-width="10"/>
      <path id="Path_18-2" data-name="Path 18" d="M195.153,606.261V569.676" transform="translate(115 4.441)" fill="none" stroke="#1e1131" stroke-linecap="round" stroke-width="10"/>
      <path id="Path_19-2" data-name="Path 19" d="M195.153,636.33v-96.5" transform="translate(128 4.441)" fill="none" stroke="#1e1131" stroke-linecap="round" stroke-width="10"/>
      <path id="Path_20-2" data-name="Path 20" d="M195.153,601.886V574.274" transform="translate(141 4.441)" fill="none" stroke="#1e1131" stroke-linecap="round" stroke-width="10"/>
      <path id="Path_21-2" data-name="Path 21" d="M195.153,629.5V546.663" transform="translate(154 4.441)" fill="none" stroke="#1e1131" stroke-linecap="round" stroke-width="10"/>
      <path id="Path_22-2" data-name="Path 22" d="M195.153,644.784s-.063-46.7,0-50.728,0-20.656,0-20.656" transform="translate(167 -16.559)" fill="none" stroke="#1e1131" stroke-linecap="round" stroke-width="10"/>
      <path id="Path_23-2" data-name="Path 23" d="M195.153,627.157s-.063-29.069,0-33.1,0-3.248,0-3.248" transform="translate(180 -16.559)" fill="none" stroke="#1e1131" stroke-linecap="round" stroke-width="10"/>
      <path id="Path_24-2" data-name="Path 24" d="M195.153,614.019v-9.744" transform="translate(193 -16.559)" fill="none" stroke="#1e1131" stroke-linecap="round" stroke-width="10"/>
      <path id="Path_25-2" data-name="Path 25" d="M195.153,648.434V568.871" transform="translate(206 -16.559)" fill="none" stroke="#1e1131" stroke-linecap="round" stroke-width="10"/>
      <path id="Path_26-2" data-name="Path 26" d="M195.153,666.012V552.478" transform="translate(219 -16.559)" fill="none" stroke="#1e1131" stroke-linecap="round" stroke-width="10"/>
      <path id="Path_27-2" data-name="Path 27" d="M195.153,630.653V587.6" transform="translate(232 -16.559)" fill="none" stroke="#1e1131" stroke-linecap="round" stroke-width="10"/>
      <path id="Path_28-2" data-name="Path 28" d="M195.153,617.9V600.345" transform="translate(245 -16.559)" fill="none" stroke="#1e1131" stroke-linecap="round" stroke-width="10"/>
      <path id="Path_29-2" data-name="Path 29" d="M195.153,614.017V603.726" transform="translate(258 -16.559)" fill="none" stroke="#1e1131" stroke-linecap="round" stroke-width="10"/>
      <path id="Path_30-2" data-name="Path 30" d="M195.153,646.769V571.832" transform="translate(271 -16.559)" fill="none" stroke="#1e1131" stroke-linecap="round" stroke-width="10"/>
      <path id="Path_31-2" data-name="Path 31" d="M195.153,617.9V600.345" transform="translate(284 -16.559)" fill="none" stroke="#1e1131" stroke-linecap="round" stroke-width="10"/>
      <path id="Path_32-2" data-name="Path 32" d="M195.153,646.769V571.832" transform="translate(297 -16.559)" fill="none" stroke="#1e1131" stroke-linecap="round" stroke-width="10"/>
      <path id="Path_33-2" data-name="Path 33" d="M195.153,601.886V574.274" transform="translate(310 4.441)" fill="none" stroke="#1e1131" stroke-linecap="round" stroke-width="10"/>
      <path id="Path_34-2" data-name="Path 34" d="M195.153,614.017V603.726" transform="translate(323 -16.559)" fill="none" stroke="#1e1131" stroke-linecap="round" stroke-width="10"/>
    </g>
    <g id="FRECUENCIA-4" data-name="FRECUENCIA" transform="translate(381 -59.441)" opacity="0.05">
      <path id="Path_9-3" data-name="Path 9" d="M195.153,594.055V577.939" transform="translate(-2 6.441)" fill="none" stroke="#1e1131" stroke-linecap="round" stroke-width="10"/>
      <path id="Path_10-3" data-name="Path 10" d="M195.153,577.939s.063,12.084,0,16.116,0,32.967,0,32.967" transform="translate(11 -9.559)" fill="none" stroke="#1e1131" stroke-linecap="round" stroke-width="10"/>
      <path id="Path_11-3" data-name="Path 11" d="M195.153,577.939v20.048" transform="translate(24 4.441)" fill="none" stroke="#1e1131" stroke-linecap="round" stroke-width="10"/>
      <path id="Path_12-3" data-name="Path 12" d="M195.153,577.939s.063,12.084,0,16.116,0,46.245,0,46.245" transform="translate(37 -16.559)" fill="none" stroke="#1e1131" stroke-linecap="round" stroke-width="10"/>
      <path id="Path_13-3" data-name="Path 13" d="M195.153,577.939v20.048" transform="translate(50 4.441)" fill="none" stroke="#1e1131" stroke-linecap="round" stroke-width="10"/>
      <path id="Path_14-3" data-name="Path 14" d="M195.153,592.494v-8.682" transform="translate(63 4.441)" fill="none" stroke="#1e1131" stroke-linecap="round" stroke-width="10"/>
      <path id="Path_15-3" data-name="Path 15" d="M195.153,589.979v-3.621" transform="translate(76 4.441)" fill="none" stroke="#1e1131" stroke-linecap="round" stroke-width="10"/>
      <path id="Path_16-3" data-name="Path 16" d="M195.153,577.939v20.048" transform="translate(89 4.441)" fill="none" stroke="#1e1131" stroke-linecap="round" stroke-width="10"/>
      <path id="Path_17-3" data-name="Path 17" d="M195.153,629.5V546.663" transform="translate(102 4.441)" fill="none" stroke="#1e1131" stroke-linecap="round" stroke-width="10"/>
      <path id="Path_18-3" data-name="Path 18" d="M195.153,606.261V569.676" transform="translate(115 4.441)" fill="none" stroke="#1e1131" stroke-linecap="round" stroke-width="10"/>
      <path id="Path_19-3" data-name="Path 19" d="M195.153,636.33v-96.5" transform="translate(128 4.441)" fill="none" stroke="#1e1131" stroke-linecap="round" stroke-width="10"/>
      <path id="Path_20-3" data-name="Path 20" d="M195.153,601.886V574.274" transform="translate(141 4.441)" fill="none" stroke="#1e1131" stroke-linecap="round" stroke-width="10"/>
      <path id="Path_21-3" data-name="Path 21" d="M195.153,629.5V546.663" transform="translate(154 4.441)" fill="none" stroke="#1e1131" stroke-linecap="round" stroke-width="10"/>
      <path id="Path_22-3" data-name="Path 22" d="M195.153,644.784s-.063-46.7,0-50.728,0-20.656,0-20.656" transform="translate(167 -16.559)" fill="none" stroke="#1e1131" stroke-linecap="round" stroke-width="10"/>
      <path id="Path_23-3" data-name="Path 23" d="M195.153,627.157s-.063-29.069,0-33.1,0-3.248,0-3.248" transform="translate(180 -16.559)" fill="none" stroke="#1e1131" stroke-linecap="round" stroke-width="10"/>
      <path id="Path_24-3" data-name="Path 24" d="M195.153,614.019v-9.744" transform="translate(193 -16.559)" fill="none" stroke="#1e1131" stroke-linecap="round" stroke-width="10"/>
      <path id="Path_25-3" data-name="Path 25" d="M195.153,648.434V568.871" transform="translate(206 -16.559)" fill="none" stroke="#1e1131" stroke-linecap="round" stroke-width="10"/>
      <path id="Path_26-3" data-name="Path 26" d="M195.153,666.012V552.478" transform="translate(219 -16.559)" fill="none" stroke="#1e1131" stroke-linecap="round" stroke-width="10"/>
      <path id="Path_27-3" data-name="Path 27" d="M195.153,630.653V587.6" transform="translate(232 -16.559)" fill="none" stroke="#1e1131" stroke-linecap="round" stroke-width="10"/>
      <path id="Path_28-3" data-name="Path 28" d="M195.153,617.9V600.345" transform="translate(245 -16.559)" fill="none" stroke="#1e1131" stroke-linecap="round" stroke-width="10"/>
    </g>
    <g id="FRECUENCIA-5" data-name="FRECUENCIA" transform="translate(642 -59.441)" opacity="0.05">
      <path id="Path_9-4" data-name="Path 9" d="M195.153,594.055V577.939" transform="translate(-2 6.441)" fill="none" stroke="#1e1131" stroke-linecap="round" stroke-width="10"/>
      <path id="Path_10-4" data-name="Path 10" d="M195.153,577.939s.063,12.084,0,16.116,0,32.967,0,32.967" transform="translate(11 -9.559)" fill="none" stroke="#1e1131" stroke-linecap="round" stroke-width="10"/>
      <path id="Path_11-4" data-name="Path 11" d="M195.153,577.939v20.048" transform="translate(24 4.441)" fill="none" stroke="#1e1131" stroke-linecap="round" stroke-width="10"/>
      <path id="Path_12-4" data-name="Path 12" d="M195.153,577.939s.063,12.084,0,16.116,0,46.245,0,46.245" transform="translate(37 -16.559)" fill="none" stroke="#1e1131" stroke-linecap="round" stroke-width="10"/>
      <path id="Path_13-4" data-name="Path 13" d="M195.153,577.939v20.048" transform="translate(50 4.441)" fill="none" stroke="#1e1131" stroke-linecap="round" stroke-width="10"/>
      <path id="Path_14-4" data-name="Path 14" d="M195.153,592.494v-8.682" transform="translate(63 4.441)" fill="none" stroke="#1e1131" stroke-linecap="round" stroke-width="10"/>
      <path id="Path_15-4" data-name="Path 15" d="M195.153,589.979v-3.621" transform="translate(76 4.441)" fill="none" stroke="#1e1131" stroke-linecap="round" stroke-width="10"/>
      <path id="Path_16-4" data-name="Path 16" d="M195.153,577.939v20.048" transform="translate(89 4.441)" fill="none" stroke="#1e1131" stroke-linecap="round" stroke-width="10"/>
      <path id="Path_17-4" data-name="Path 17" d="M195.153,629.5V546.663" transform="translate(102 4.441)" fill="none" stroke="#1e1131" stroke-linecap="round" stroke-width="10"/>
      <path id="Path_18-4" data-name="Path 18" d="M195.153,606.261V569.676" transform="translate(115 4.441)" fill="none" stroke="#1e1131" stroke-linecap="round" stroke-width="10"/>
      <path id="Path_19-4" data-name="Path 19" d="M195.153,636.33v-96.5" transform="translate(128 4.441)" fill="none" stroke="#1e1131" stroke-linecap="round" stroke-width="10"/>
      <path id="Path_20-4" data-name="Path 20" d="M195.153,601.886V574.274" transform="translate(141 4.441)" fill="none" stroke="#1e1131" stroke-linecap="round" stroke-width="10"/>
      <path id="Path_21-4" data-name="Path 21" d="M195.153,629.5V546.663" transform="translate(154 4.441)" fill="none" stroke="#1e1131" stroke-linecap="round" stroke-width="10"/>
      <path id="Path_22-4" data-name="Path 22" d="M195.153,644.784s-.063-46.7,0-50.728,0-20.656,0-20.656" transform="translate(167 -16.559)" fill="none" stroke="#1e1131" stroke-linecap="round" stroke-width="10"/>
      <path id="Path_23-4" data-name="Path 23" d="M195.153,627.157s-.063-29.069,0-33.1,0-3.248,0-3.248" transform="translate(180 -16.559)" fill="none" stroke="#1e1131" stroke-linecap="round" stroke-width="10"/>
      <path id="Path_24-4" data-name="Path 24" d="M195.153,614.019v-9.744" transform="translate(193 -16.559)" fill="none" stroke="#1e1131" stroke-linecap="round" stroke-width="10"/>
      <path id="Path_25-4" data-name="Path 25" d="M195.153,648.434V568.871" transform="translate(206 -16.559)" fill="none" stroke="#1e1131" stroke-linecap="round" stroke-width="10"/>
      <path id="Path_26-4" data-name="Path 26" d="M195.153,666.012V552.478" transform="translate(219 -16.559)" fill="none" stroke="#1e1131" stroke-linecap="round" stroke-width="10"/>
      <path id="Path_27-4" data-name="Path 27" d="M195.153,630.653V587.6" transform="translate(232 -16.559)" fill="none" stroke="#1e1131" stroke-linecap="round" stroke-width="10"/>
      <path id="Path_28-4" data-name="Path 28" d="M195.153,617.9V600.345" transform="translate(245 -16.559)" fill="none" stroke="#1e1131" stroke-linecap="round" stroke-width="10"/>
      <path id="Path_29-3" data-name="Path 29" d="M195.153,614.017V603.726" transform="translate(258 -16.559)" fill="none" stroke="#1e1131" stroke-linecap="round" stroke-width="10"/>
      <path id="Path_30-3" data-name="Path 30" d="M195.153,646.769V571.832" transform="translate(271 -16.559)" fill="none" stroke="#1e1131" stroke-linecap="round" stroke-width="10"/>
      <path id="Path_31-3" data-name="Path 31" d="M195.153,617.9V600.345" transform="translate(284 -16.559)" fill="none" stroke="#1e1131" stroke-linecap="round" stroke-width="10"/>
      <path id="Path_32-3" data-name="Path 32" d="M195.153,646.769V571.832" transform="translate(297 -16.559)" fill="none" stroke="#1e1131" stroke-linecap="round" stroke-width="10"/>
      <path id="Path_33-3" data-name="Path 33" d="M195.153,601.886V574.274" transform="translate(310 4.441)" fill="none" stroke="#1e1131" stroke-linecap="round" stroke-width="10"/>
      <path id="Path_34-3" data-name="Path 34" d="M195.153,614.017V603.726" transform="translate(323 -16.559)" fill="none" stroke="#1e1131" stroke-linecap="round" stroke-width="10"/>
    </g>
    <g id="FRECUENCIA-6" data-name="FRECUENCIA" transform="translate(980 -59.441)" opacity="0.05">
      <path id="Path_9-5" data-name="Path 9" d="M195.153,594.055V577.939" transform="translate(-2 6.441)" fill="none" stroke="#1e1131" stroke-linecap="round" stroke-width="10"/>
      <path id="Path_10-5" data-name="Path 10" d="M195.153,577.939s.063,12.084,0,16.116,0,32.967,0,32.967" transform="translate(11 -9.559)" fill="none" stroke="#1e1131" stroke-linecap="round" stroke-width="10"/>
      <path id="Path_11-5" data-name="Path 11" d="M195.153,577.939v20.048" transform="translate(24 4.441)" fill="none" stroke="#1e1131" stroke-linecap="round" stroke-width="10"/>
      <path id="Path_12-5" data-name="Path 12" d="M195.153,577.939s.063,12.084,0,16.116,0,46.245,0,46.245" transform="translate(37 -16.559)" fill="none" stroke="#1e1131" stroke-linecap="round" stroke-width="10"/>
      <path id="Path_13-5" data-name="Path 13" d="M195.153,577.939v20.048" transform="translate(50 4.441)" fill="none" stroke="#1e1131" stroke-linecap="round" stroke-width="10"/>
      <path id="Path_14-5" data-name="Path 14" d="M195.153,592.494v-8.682" transform="translate(63 4.441)" fill="none" stroke="#1e1131" stroke-linecap="round" stroke-width="10"/>
      <path id="Path_15-5" data-name="Path 15" d="M195.153,589.979v-3.621" transform="translate(76 4.441)" fill="none" stroke="#1e1131" stroke-linecap="round" stroke-width="10"/>
      <path id="Path_16-5" data-name="Path 16" d="M195.153,577.939v20.048" transform="translate(89 4.441)" fill="none" stroke="#1e1131" stroke-linecap="round" stroke-width="10"/>
      <path id="Path_17-5" data-name="Path 17" d="M195.153,629.5V546.663" transform="translate(102 4.441)" fill="none" stroke="#1e1131" stroke-linecap="round" stroke-width="10"/>
      <path id="Path_18-5" data-name="Path 18" d="M195.153,606.261V569.676" transform="translate(115 4.441)" fill="none" stroke="#1e1131" stroke-linecap="round" stroke-width="10"/>
      <path id="Path_19-5" data-name="Path 19" d="M195.153,636.33v-96.5" transform="translate(128 4.441)" fill="none" stroke="#1e1131" stroke-linecap="round" stroke-width="10"/>
      <path id="Path_20-5" data-name="Path 20" d="M195.153,601.886V574.274" transform="translate(141 4.441)" fill="none" stroke="#1e1131" stroke-linecap="round" stroke-width="10"/>
      <path id="Path_21-5" data-name="Path 21" d="M195.153,629.5V546.663" transform="translate(154 4.441)" fill="none" stroke="#1e1131" stroke-linecap="round" stroke-width="10"/>
      <path id="Path_22-5" data-name="Path 22" d="M195.153,644.784s-.063-46.7,0-50.728,0-20.656,0-20.656" transform="translate(167 -16.559)" fill="none" stroke="#1e1131" stroke-linecap="round" stroke-width="10"/>
      <path id="Path_23-5" data-name="Path 23" d="M195.153,627.157s-.063-29.069,0-33.1,0-3.248,0-3.248" transform="translate(180 -16.559)" fill="none" stroke="#1e1131" stroke-linecap="round" stroke-width="10"/>
      <path id="Path_24-5" data-name="Path 24" d="M195.153,614.019v-9.744" transform="translate(193 -16.559)" fill="none" stroke="#1e1131" stroke-linecap="round" stroke-width="10"/>
      <path id="Path_25-5" data-name="Path 25" d="M195.153,648.434V568.871" transform="translate(206 -16.559)" fill="none" stroke="#1e1131" stroke-linecap="round" stroke-width="10"/>
      <path id="Path_27-5" data-name="Path 27" d="M195.153,630.653V587.6" transform="translate(219 -16.559)" fill="none" stroke="#1e1131" stroke-linecap="round" stroke-width="10"/>
    </g>
    <g id="ESFERAS" transform="translate(-514 28.559)">
      <circle id="Ellipse_7" data-name="Ellipse 7" cx="47" cy="47" r="47" transform="translate(546 115)" fill="#ebeaec"/>
      <circle id="Ellipse_8" data-name="Ellipse 8" cx="27.5" cy="27.5" r="27.5" transform="translate(683 88)" fill="#ebeaec"/>
      <circle id="Ellipse_9" data-name="Ellipse 9" cx="14" cy="14" r="14" transform="translate(687 202)" fill="#ebeaec"/>
      <circle id="Ellipse_10" data-name="Ellipse 10" cx="14" cy="14" r="14" transform="translate(1028 384)" fill="#ebeaec"/>
      <circle id="Ellipse_13" data-name="Ellipse 13" cx="9" cy="9" r="9" transform="translate(678 594)" fill="#ebeaec"/>
      <circle id="Ellipse_14" data-name="Ellipse 14" cx="14" cy="14" r="14" transform="translate(1028 384)" fill="#ebeaec"/>
      <circle id="Ellipse_16" data-name="Ellipse 16" cx="9" cy="9" r="9" transform="translate(964 262)" fill="#ebeaec"/>
      <circle id="Ellipse_17" data-name="Ellipse 17" cx="14" cy="14" r="14" transform="translate(1014 132)" fill="#ebeaec"/>
      <circle id="Ellipse_18" data-name="Ellipse 18" cx="27.5" cy="27.5" r="27.5" transform="translate(1064 271)" fill="#ebeaec"/>
      <circle id="Ellipse_19" data-name="Ellipse 19" cx="4.5" cy="4.5" r="4.5" transform="translate(678 394)" fill="#ebeaec"/>
      <circle id="Ellipse_20" data-name="Ellipse 20" cx="14" cy="14" r="14" transform="translate(870 650)" fill="#ebeaec"/>
      <circle id="Ellipse_21" data-name="Ellipse 21" cx="4.5" cy="4.5" r="4.5" transform="translate(1070 603)" fill="#ebeaec"/>
      <circle id="Ellipse_22" data-name="Ellipse 22" cx="4.5" cy="4.5" r="4.5" transform="translate(1028 98)" fill="#ebeaec"/>
    </g>
  </g>
</svg>
